<?xml version="1.0" standalone="no"?>
<!DOCTYPE svg PUBLIC "-//W3C//DTD SVG 20010904//EN"
 "http://www.w3.org/TR/2001/REC-SVG-20010904/DTD/svg10.dtd">
<svg version="1.0" xmlns="http://www.w3.org/2000/svg"
 width="512.000000pt" height="512.000000pt" viewBox="0 0 512.000000 512.000000"
 preserveAspectRatio="xMidYMid meet">

<g transform="translate(0.000000,512.000000) scale(0.100000,-0.100000)"
fill="#000000" stroke="none">
<path d="M2485 5092 c-1432 -689 -2294 -1108 -2307 -1124 -17 -19 -18 -101
-18 -1408 0 -1307 1 -1389 18 -1408 9 -11 168 -92 352 -181 184 -89 364 -179
400 -200 36 -22 76 -42 90 -46 24 -7 48 -17 175 -75 33 -15 346 -166 695 -335
463 -225 645 -308 670 -308 25 0 169 65 515 233 264 127 521 251 570 275 50
24 189 91 310 150 324 158 503 240 565 260 30 10 69 28 85 41 17 12 99 57 183
99 84 42 157 85 162 95 6 12 10 508 10 1403 0 1305 -1 1386 -17 1405 -19 21
-2331 1140 -2373 1148 -15 3 -49 -7 -85 -24z"/>
</g>
</svg>
